solid 도색집게용
facet normal 0.0 0.0 -1.0
  outer loop
    vertex -0.008210369523457078 0.002199961883371434 0.0
    vertex -0.00528090667378078 0.0014999999999999983 0.0
    vertex -0.008302521253618907 0.0014999999999999983 0.0
  endloop
endfacet
facet normal 0.0 0.0 -1.0
  outer loop
    vertex -0.00528090667378078 0.0014999999999999983 0.0
    vertex -0.008210369523457078 0.002199961883371434 0.0
    vertex -0.007361215932167726 0.004250000000000005 0.0
  endloop
endfacet
facet normal 0.0 0.0 -1.0
  outer loop
    vertex -0.00528090667378078 0.0014999999999999983 0.0
    vertex -0.007361215932167726 0.004250000000000005 0.0
    vertex -0.00601040764008565 0.006010407640085658 0.0
  endloop
endfacet
facet normal 0.0 0.0 -1.0
  outer loop
    vertex -0.00528090667378078 0.0014999999999999983 0.0
    vertex -0.00601040764008565 0.006010407640085658 0.0
    vertex -0.004249999999999997 0.00736121593216773 0.0
  endloop
endfacet
facet normal 0.0 0.0 -1.0
  outer loop
    vertex -0.00528090667378078 0.0014999999999999983 0.0
    vertex -0.004249999999999997 0.00736121593216773 0.0
    vertex -0.004763139720814411 0.0027500000000000016 0.0
  endloop
endfacet
facet normal 0.0 0.0 -1.0
  outer loop
    vertex -0.004763139720814411 0.0027500000000000016 0.0
    vertex -0.004249999999999997 0.00736121593216773 0.0
    vertex -0.0038890872965260115 0.0038890872965260115 0.0
  endloop
endfacet
facet normal 0.0 0.0 -1.0
  outer loop
    vertex -0.0038890872965260115 0.0038890872965260115 0.0
    vertex -0.004249999999999997 0.00736121593216773 0.0
    vertex -0.002199961883371422 0.008210369523457082 0.0
  endloop
endfacet
facet normal 0.0 0.0 -1.0
  outer loop
    vertex -0.0038890872965260115 0.0038890872965260115 0.0
    vertex -0.002199961883371422 0.008210369523457082 0.0
    vertex -0.002749999999999999 0.004763139720814413 0.0
  endloop
endfacet
facet normal 0.0 0.0 -1.0
  outer loop
    vertex -0.002749999999999999 0.004763139720814413 0.0
    vertex -0.002199961883371422 0.008210369523457082 0.0
    vertex -0.0014235047480638634 0.005312592044589876 0.0
  endloop
endfacet
facet normal 0.0 0.0 -1.0
  outer loop
    vertex -0.0014235047480638634 0.005312592044589876 0.0
    vertex -0.002199961883371422 0.008210369523457082 0.0
    vertex 2.0512833885718167e-18 0.0085 0.0
  endloop
endfacet
facet normal 0.0 0.0 -1.0
  outer loop
    vertex -0.0014235047480638634 0.005312592044589876 0.0
    vertex 2.0512833885718167e-18 0.0085 0.0
    vertex 3.367778697655221e-19 0.0055 0.0
  endloop
endfacet
facet normal 0.0 0.0 -1.0
  outer loop
    vertex 3.367778697655221e-19 0.0055 0.0
    vertex 2.0512833885718167e-18 0.0085 0.0
    vertex 0.001423504748063865 0.005312592044589875 0.0
  endloop
endfacet
facet normal 0.0 0.0 -1.0
  outer loop
    vertex 0.001423504748063865 0.005312592044589875 0.0
    vertex 2.0512833885718167e-18 0.0085 0.0
    vertex 0.0021999618833714297 0.00821036952345708 0.0
  endloop
endfacet
facet normal 0.0 0.0 -1.0
  outer loop
    vertex 0.001423504748063865 0.005312592044589875 0.0
    vertex 0.0021999618833714297 0.00821036952345708 0.0
    vertex 0.0027500000000000007 0.004763139720814412 0.0
  endloop
endfacet
facet normal 0.0 0.0 -1.0
  outer loop
    vertex 0.0027500000000000007 0.004763139720814412 0.0
    vertex 0.0021999618833714297 0.00821036952345708 0.0
    vertex 0.004250000000000004 0.0073612159321677275 0.0
  endloop
endfacet
facet normal 0.0 0.0 -1.0
  outer loop
    vertex 0.0027500000000000007 0.004763139720814412 0.0
    vertex 0.004250000000000004 0.0073612159321677275 0.0
    vertex 0.0038890872965260115 0.0038890872965260115 0.0
  endloop
endfacet
facet normal 0.0 0.0 -1.0
  outer loop
    vertex 0.0038890872965260115 0.0038890872965260115 0.0
    vertex 0.004250000000000004 0.0073612159321677275 0.0
    vertex 0.004763139720814413 0.0027499999999999994 0.0
  endloop
endfacet
facet normal 0.0 0.0 -1.0
  outer loop
    vertex 0.004763139720814413 0.0027499999999999994 0.0
    vertex 0.004250000000000004 0.0073612159321677275 0.0
    vertex 0.006010407640085655 0.006010407640085653 0.0
  endloop
endfacet
facet normal 0.0 0.0 -1.0
  outer loop
    vertex 0.004763139720814413 0.0027499999999999994 0.0
    vertex 0.006010407640085655 0.006010407640085653 0.0
    vertex 0.005280906673780782 0.0014999999999999983 0.0
  endloop
endfacet
facet normal 0.0 0.0 -1.0
  outer loop
    vertex 0.005280906673780782 0.0014999999999999983 0.0
    vertex 0.006010407640085655 0.006010407640085653 0.0
    vertex 0.005312592044589876 0.001423504748063864 0.0
  endloop
endfacet
facet normal 0.0 0.0 -1.0
  outer loop
    vertex 0.005312592044589876 0.001423504748063864 0.0
    vertex 0.006010407640085655 0.006010407640085653 0.0
    vertex 0.0055 0.0 0.0
  endloop
endfacet
facet normal 0.0 0.0 -1.0
  outer loop
    vertex 0.0055 0.0 0.0
    vertex 0.006010407640085655 0.006010407640085653 0.0
    vertex 0.0060104076400856535 -0.006010407640085655 0.0
  endloop
endfacet
facet normal 0.0 0.0 -1.0
  outer loop
    vertex 0.0060104076400856535 -0.006010407640085655 0.0
    vertex 0.006010407640085655 0.006010407640085653 0.0
    vertex 0.007361215932167729 -0.004250000000000001 0.0
  endloop
endfacet
facet normal 0.0 0.0 -1.0
  outer loop
    vertex 0.007361215932167729 -0.004250000000000001 0.0
    vertex 0.006010407640085655 0.006010407640085653 0.0
    vertex 0.007361215932167729 0.004249999999999997 0.0
  endloop
endfacet
facet normal 0.0 0.0 -1.0
  outer loop
    vertex 0.007361215932167729 -0.004250000000000001 0.0
    vertex 0.007361215932167729 0.004249999999999997 0.0
    vertex 0.0185 0.004249999999999997 0.0
  endloop
endfacet
facet normal 0.0 0.0 -1.0
  outer loop
    vertex 0.007361215932167729 -0.004250000000000001 0.0
    vertex 0.0185 0.004249999999999997 0.0
    vertex 0.0185 -0.004250000000000001 0.0
  endloop
endfacet
facet normal 0.0 0.0 -1.0
  outer loop
    vertex 0.0185 -0.004250000000000001 0.0
    vertex 0.0185 0.004249999999999997 0.0
    vertex 0.0185 0.00036113984247911985 0.0
  endloop
endfacet
facet normal 0.0 0.0 -1.0
  outer loop
    vertex -0.005280906673780781 -0.0015000000000000018 0.0
    vertex -0.008210369523457082 -0.0021999618833714214 0.0
    vertex -0.008302521253618906 -0.0015000000000000015 0.0
  endloop
endfacet
facet normal 0.0 0.0 -1.0
  outer loop
    vertex -0.008210369523457082 -0.0021999618833714214 0.0
    vertex -0.005280906673780781 -0.0015000000000000018 0.0
    vertex -0.007361215932167732 -0.004249999999999993 0.0
  endloop
endfacet
facet normal 0.0 0.0 -1.0
  outer loop
    vertex -0.007361215932167732 -0.004249999999999993 0.0
    vertex -0.005280906673780781 -0.0015000000000000018 0.0
    vertex -0.006010407640085656 -0.006010407640085652 0.0
  endloop
endfacet
facet normal 0.0 0.0 -1.0
  outer loop
    vertex -0.006010407640085656 -0.006010407640085652 0.0
    vertex -0.005280906673780781 -0.0015000000000000018 0.0
    vertex -0.004250000000000005 -0.007361215932167726 0.0
  endloop
endfacet
facet normal 0.0 0.0 -1.0
  outer loop
    vertex -0.004250000000000005 -0.007361215932167726 0.0
    vertex -0.005280906673780781 -0.0015000000000000018 0.0
    vertex -0.004763139720814414 -0.0027499999999999985 0.0
  endloop
endfacet
facet normal 0.0 0.0 -1.0
  outer loop
    vertex -0.004250000000000005 -0.007361215932167726 0.0
    vertex -0.004763139720814414 -0.0027499999999999985 0.0
    vertex -0.0038890872965260132 -0.0038890872965260093 0.0
  endloop
endfacet
facet normal 0.0 0.0 -1.0
  outer loop
    vertex -0.004250000000000005 -0.007361215932167726 0.0
    vertex -0.0038890872965260132 -0.0038890872965260093 0.0
    vertex -0.0021999618833714344 -0.008210369523457078 0.0
  endloop
endfacet
facet normal 0.0 0.0 -1.0
  outer loop
    vertex -0.0021999618833714344 -0.008210369523457078 0.0
    vertex -0.0038890872965260132 -0.0038890872965260093 0.0
    vertex -0.0027500000000000024 -0.004763139720814411 0.0
  endloop
endfacet
facet normal 0.0 0.0 -1.0
  outer loop
    vertex -0.0021999618833714344 -0.008210369523457078 0.0
    vertex -0.0027500000000000024 -0.004763139720814411 0.0
    vertex -0.0014235047480638684 -0.005312592044589875 0.0
  endloop
endfacet
facet normal 0.0 0.0 -1.0
  outer loop
    vertex -0.0021999618833714344 -0.008210369523457078 0.0
    vertex -0.0014235047480638684 -0.005312592044589875 0.0
    vertex -1.0103336092965665e-18 -0.0085 0.0
  endloop
endfacet
facet normal 0.0 0.0 -1.0
  outer loop
    vertex -1.0103336092965665e-18 -0.0085 0.0
    vertex -0.0014235047480638684 -0.005312592044589875 0.0
    vertex -1.0103336092965663e-18 -0.0055 0.0
  endloop
endfacet
facet normal 0.0 0.0 -1.0
  outer loop
    vertex -1.0103336092965665e-18 -0.0085 0.0
    vertex -1.0103336092965663e-18 -0.0055 0.0
    vertex 0.0021999618833714253 -0.00821036952345708 0.0
  endloop
endfacet
facet normal 0.0 0.0 -1.0
  outer loop
    vertex 0.0021999618833714253 -0.00821036952345708 0.0
    vertex -1.0103336092965663e-18 -0.0055 0.0
    vertex 0.0014235047480638616 -0.005312592044589876 0.0
  endloop
endfacet
facet normal 0.0 0.0 -1.0
  outer loop
    vertex 0.0021999618833714253 -0.00821036952345708 0.0
    vertex 0.0014235047480638616 -0.005312592044589876 0.0
    vertex 0.002749999999999996 -0.004763139720814415 0.0
  endloop
endfacet
facet normal 0.0 0.0 -1.0
  outer loop
    vertex 0.0021999618833714253 -0.00821036952345708 0.0
    vertex 0.002749999999999996 -0.004763139720814415 0.0
    vertex 0.004249999999999999 -0.007361215932167729 0.0
  endloop
endfacet
facet normal 0.0 0.0 -1.0
  outer loop
    vertex 0.004249999999999999 -0.007361215932167729 0.0
    vertex 0.002749999999999996 -0.004763139720814415 0.0
    vertex 0.0038890872965260106 -0.003889087296526012 0.0
  endloop
endfacet
facet normal 0.0 0.0 -1.0
  outer loop
    vertex 0.004249999999999999 -0.007361215932167729 0.0
    vertex 0.0038890872965260106 -0.003889087296526012 0.0
    vertex 0.004763139720814411 -0.0027500000000000024 0.0
  endloop
endfacet
facet normal 0.0 0.0 -1.0
  outer loop
    vertex 0.004249999999999999 -0.007361215932167729 0.0
    vertex 0.004763139720814411 -0.0027500000000000024 0.0
    vertex 0.0060104076400856535 -0.006010407640085655 0.0
  endloop
endfacet
facet normal 0.0 0.0 -1.0
  outer loop
    vertex 0.0060104076400856535 -0.006010407640085655 0.0
    vertex 0.004763139720814411 -0.0027500000000000024 0.0
    vertex 0.005280906673780781 -0.0015000000000000018 0.0
  endloop
endfacet
facet normal 0.0 0.0 -1.0
  outer loop
    vertex 0.0060104076400856535 -0.006010407640085655 0.0
    vertex 0.005280906673780781 -0.0015000000000000018 0.0
    vertex 0.005312592044589875 -0.0014235047480638686 0.0
  endloop
endfacet
facet normal 0.0 0.0 -1.0
  outer loop
    vertex 0.0060104076400856535 -0.006010407640085655 0.0
    vertex 0.005312592044589875 -0.0014235047480638686 0.0
    vertex 0.0055 0.0 0.0
  endloop
endfacet
facet normal 0.7933533402912348 -0.608761429008721 -0.0
  outer loop
    vertex 0.007361215932167729 -0.004250000000000001 0.0
    vertex 0.0060104076400856535 -0.006010407640085655 0.003
    vertex 0.0060104076400856535 -0.006010407640085655 0.0
  endloop
endfacet
facet normal 0.7933533402912348 -0.608761429008721 -0.0
  outer loop
    vertex 0.0060104076400856535 -0.006010407640085655 0.003
    vertex 0.007361215932167729 -0.004250000000000001 0.0
    vertex 0.007361215932167729 -0.004250000000000001 0.003
  endloop
endfacet
facet normal 0.13052619222005177 -0.9914448613738105 0.0
  outer loop
    vertex 0.0021999618833714253 -0.00821036952345708 0.003
    vertex -1.0103336092965665e-18 -0.0085 0.0
    vertex 0.0021999618833714253 -0.00821036952345708 0.0
  endloop
endfacet
facet normal 0.13052619222005177 -0.9914448613738105 0.0
  outer loop
    vertex -1.0103336092965665e-18 -0.0085 0.0
    vertex 0.0021999618833714253 -0.00821036952345708 0.003
    vertex -1.0103336092965665e-18 -0.0085 0.003
  endloop
endfacet
facet normal -0.13052619222005196 -0.9914448613738104 -0.0
  outer loop
    vertex -1.0103336092965665e-18 -0.0085 0.003
    vertex -0.0021999618833714344 -0.008210369523457078 0.0
    vertex -1.0103336092965665e-18 -0.0085 0.0
  endloop
endfacet
facet normal -0.13052619222005196 -0.9914448613738104 -0.0
  outer loop
    vertex -0.0021999618833714344 -0.008210369523457078 0.0
    vertex -1.0103336092965665e-18 -0.0085 0.003
    vertex -0.0021999618833714344 -0.008210369523457078 0.003
  endloop
endfacet
facet normal -0.3826834323650907 -0.9238795325112865 -0.0
  outer loop
    vertex -0.0021999618833714344 -0.008210369523457078 0.003
    vertex -0.004250000000000005 -0.007361215932167726 0.0
    vertex -0.0021999618833714344 -0.008210369523457078 0.0
  endloop
endfacet
facet normal -0.3826834323650907 -0.9238795325112865 -0.0
  outer loop
    vertex -0.004250000000000005 -0.007361215932167726 0.0
    vertex -0.0021999618833714344 -0.008210369523457078 0.003
    vertex -0.004250000000000005 -0.007361215932167726 0.003
  endloop
endfacet
facet normal -0.6087614290087209 -0.7933533402912352 -0.0
  outer loop
    vertex -0.004250000000000005 -0.007361215932167726 0.003
    vertex -0.006010407640085656 -0.006010407640085652 0.0
    vertex -0.004250000000000005 -0.007361215932167726 0.0
  endloop
endfacet
facet normal -0.6087614290087209 -0.7933533402912352 -0.0
  outer loop
    vertex -0.006010407640085656 -0.006010407640085652 0.0
    vertex -0.004250000000000005 -0.007361215932167726 0.003
    vertex -0.006010407640085656 -0.006010407640085652 0.003
  endloop
endfacet
facet normal -0.7933533402912358 -0.6087614290087198 -0.0
  outer loop
    vertex -0.007361215932167732 -0.004249999999999993 0.003
    vertex -0.006010407640085656 -0.006010407640085652 0.0
    vertex -0.006010407640085656 -0.006010407640085652 0.003
  endloop
endfacet
facet normal -0.7933533402912358 -0.6087614290087198 -0.0
  outer loop
    vertex -0.006010407640085656 -0.006010407640085652 0.0
    vertex -0.007361215932167732 -0.004249999999999993 0.003
    vertex -0.007361215932167732 -0.004249999999999993 0.0
  endloop
endfacet
facet normal -0.923879532511287 -0.38268343236508934 -0.0
  outer loop
    vertex -0.008210369523457082 -0.0021999618833714214 0.003
    vertex -0.007361215932167732 -0.004249999999999993 0.0
    vertex -0.007361215932167732 -0.004249999999999993 0.003
  endloop
endfacet
facet normal -0.923879532511287 -0.38268343236508934 -0.0
  outer loop
    vertex -0.007361215932167732 -0.004249999999999993 0.0
    vertex -0.008210369523457082 -0.0021999618833714214 0.003
    vertex -0.008210369523457082 -0.0021999618833714214 0.0
  endloop
endfacet
facet normal -0.9914448613738106 -0.13052619222004969 -0.0
  outer loop
    vertex -0.008302521253618906 -0.0015000000000000015 0.003
    vertex -0.008210369523457082 -0.0021999618833714214 0.0
    vertex -0.008210369523457082 -0.0021999618833714214 0.003
  endloop
endfacet
facet normal -0.9914448613738106 -0.13052619222004969 -0.0
  outer loop
    vertex -0.008210369523457082 -0.0021999618833714214 0.0
    vertex -0.008302521253618906 -0.0015000000000000015 0.003
    vertex -0.008302521253618906 -0.0015000000000000015 0.0
  endloop
endfacet
facet normal 5.832904909026672e-17 1.0 0.0
  outer loop
    vertex -0.008302521253618906 -0.0015000000000000015 0.003
    vertex -0.005280906673780781 -0.0015000000000000018 0.0
    vertex -0.008302521253618906 -0.0015000000000000015 0.0
  endloop
endfacet
facet normal 5.832904909026672e-17 1.0 0.0
  outer loop
    vertex -0.005280906673780781 -0.0015000000000000018 0.0
    vertex -0.008302521253618906 -0.0015000000000000015 0.003
    vertex -0.005280906673780781 -0.0015000000000000018 0.003
  endloop
endfacet
facet normal 0.9238795325112867 0.38268343236509 0.0
  outer loop
    vertex -0.005280906673780781 -0.0015000000000000018 0.0
    vertex -0.004763139720814414 -0.0027499999999999985 0.003
    vertex -0.004763139720814414 -0.0027499999999999985 0.0
  endloop
endfacet
facet normal 0.9238795325112867 0.38268343236509 0.0
  outer loop
    vertex -0.004763139720814414 -0.0027499999999999985 0.003
    vertex -0.005280906673780781 -0.0015000000000000018 0.0
    vertex -0.005280906673780781 -0.0015000000000000018 0.003
  endloop
endfacet
facet normal 0.7933533402912354 0.6087614290087204 0.0
  outer loop
    vertex -0.004763139720814414 -0.0027499999999999985 0.0
    vertex -0.0038890872965260132 -0.0038890872965260093 0.003
    vertex -0.0038890872965260132 -0.0038890872965260093 0.0
  endloop
endfacet
facet normal 0.7933533402912354 0.6087614290087204 0.0
  outer loop
    vertex -0.0038890872965260132 -0.0038890872965260093 0.003
    vertex -0.004763139720814414 -0.0027499999999999985 0.0
    vertex -0.004763139720814414 -0.0027499999999999985 0.003
  endloop
endfacet
facet normal 0.6087614290087211 0.7933533402912347 0.0
  outer loop
    vertex -0.0038890872965260132 -0.0038890872965260093 0.003
    vertex -0.0027500000000000024 -0.004763139720814411 0.0
    vertex -0.0038890872965260132 -0.0038890872965260093 0.0
  endloop
endfacet
facet normal 0.6087614290087211 0.7933533402912347 0.0
  outer loop
    vertex -0.0027500000000000024 -0.004763139720814411 0.0
    vertex -0.0038890872965260132 -0.0038890872965260093 0.003
    vertex -0.0027500000000000024 -0.004763139720814411 0.003
  endloop
endfacet
facet normal 0.3826834323650904 0.9238795325112866 0.0
  outer loop
    vertex -0.0027500000000000024 -0.004763139720814411 0.003
    vertex -0.0014235047480638684 -0.005312592044589875 0.0
    vertex -0.0027500000000000024 -0.004763139720814411 0.0
  endloop
endfacet
facet normal 0.3826834323650904 0.9238795325112866 0.0
  outer loop
    vertex -0.0014235047480638684 -0.005312592044589875 0.0
    vertex -0.0027500000000000024 -0.004763139720814411 0.003
    vertex -0.0014235047480638684 -0.005312592044589875 0.003
  endloop
endfacet
facet normal 0.13052619222005193 0.9914448613738104 0.0
  outer loop
    vertex -0.0014235047480638684 -0.005312592044589875 0.003
    vertex -1.0103336092965663e-18 -0.0055 0.0
    vertex -0.0014235047480638684 -0.005312592044589875 0.0
  endloop
endfacet
facet normal 0.13052619222005193 0.9914448613738104 0.0
  outer loop
    vertex -1.0103336092965663e-18 -0.0055 0.0
    vertex -0.0014235047480638684 -0.005312592044589875 0.003
    vertex -1.0103336092965663e-18 -0.0055 0.003
  endloop
endfacet
facet normal -0.13052619222005138 0.9914448613738104 0.0
  outer loop
    vertex -1.0103336092965663e-18 -0.0055 0.003
    vertex 0.0014235047480638616 -0.005312592044589876 0.0
    vertex -1.0103336092965663e-18 -0.0055 0.0
  endloop
endfacet
facet normal -0.13052619222005138 0.9914448613738104 0.0
  outer loop
    vertex 0.0014235047480638616 -0.005312592044589876 0.0
    vertex -1.0103336092965663e-18 -0.0055 0.003
    vertex 0.0014235047480638616 -0.005312592044589876 0.003
  endloop
endfacet
facet normal -0.382683432365089 0.9238795325112871 0.0
  outer loop
    vertex 0.0014235047480638616 -0.005312592044589876 0.003
    vertex 0.002749999999999996 -0.004763139720814415 0.0
    vertex 0.0014235047480638616 -0.005312592044589876 0.0
  endloop
endfacet
facet normal -0.382683432365089 0.9238795325112871 0.0
  outer loop
    vertex 0.002749999999999996 -0.004763139720814415 0.0
    vertex 0.0014235047480638616 -0.005312592044589876 0.003
    vertex 0.002749999999999996 -0.004763139720814415 0.003
  endloop
endfacet
facet normal -0.6087614290087203 0.7933533402912354 0.0
  outer loop
    vertex 0.002749999999999996 -0.004763139720814415 0.003
    vertex 0.0038890872965260106 -0.003889087296526012 0.0
    vertex 0.002749999999999996 -0.004763139720814415 0.0
  endloop
endfacet
facet normal -0.6087614290087203 0.7933533402912354 0.0
  outer loop
    vertex 0.0038890872965260106 -0.003889087296526012 0.0
    vertex 0.002749999999999996 -0.004763139720814415 0.003
    vertex 0.0038890872965260106 -0.003889087296526012 0.003
  endloop
endfacet
facet normal -0.7933533402912348 0.608761429008721 0.0
  outer loop
    vertex 0.004763139720814411 -0.0027500000000000024 0.003
    vertex 0.0038890872965260106 -0.003889087296526012 0.0
    vertex 0.0038890872965260106 -0.003889087296526012 0.003
  endloop
endfacet
facet normal -0.7933533402912348 0.608761429008721 0.0
  outer loop
    vertex 0.0038890872965260106 -0.003889087296526012 0.0
    vertex 0.004763139720814411 -0.0027500000000000024 0.003
    vertex 0.004763139720814411 -0.0027500000000000024 0.0
  endloop
endfacet
facet normal -0.9238795325112866 0.38268343236509034 0.0
  outer loop
    vertex 0.005280906673780781 -0.0015000000000000018 0.003
    vertex 0.004763139720814411 -0.0027500000000000024 0.0
    vertex 0.004763139720814411 -0.0027500000000000024 0.003
  endloop
endfacet
facet normal -0.9238795325112866 0.38268343236509034 0.0
  outer loop
    vertex 0.004763139720814411 -0.0027500000000000024 0.0
    vertex 0.005280906673780781 -0.0015000000000000018 0.003
    vertex 0.005280906673780781 -0.0015000000000000018 0.0
  endloop
endfacet
facet normal -0.9238795325112856 0.3826834323650926 0.0
  outer loop
    vertex 0.005312592044589875 -0.0014235047480638686 0.003
    vertex 0.005280906673780781 -0.0015000000000000018 0.0
    vertex 0.005280906673780781 -0.0015000000000000018 0.003
  endloop
endfacet
facet normal -0.9238795325112856 0.3826834323650926 0.0
  outer loop
    vertex 0.005280906673780781 -0.0015000000000000018 0.0
    vertex 0.005312592044589875 -0.0014235047480638686 0.003
    vertex 0.005312592044589875 -0.0014235047480638686 0.0
  endloop
endfacet
facet normal -0.9914448613738104 0.13052619222005182 0.0
  outer loop
    vertex 0.0055 0.0 0.003
    vertex 0.005312592044589875 -0.0014235047480638686 0.0
    vertex 0.005312592044589875 -0.0014235047480638686 0.003
  endloop
endfacet
facet normal -0.9914448613738104 0.13052619222005182 0.0
  outer loop
    vertex 0.005312592044589875 -0.0014235047480638686 0.0
    vertex 0.0055 0.0 0.003
    vertex 0.0055 0.0 0.0
  endloop
endfacet
facet normal -0.9914448613738106 -0.1305261922200513 -0.0
  outer loop
    vertex 0.005312592044589876 0.001423504748063864 0.003
    vertex 0.0055 0.0 0.0
    vertex 0.0055 0.0 0.003
  endloop
endfacet
facet normal -0.9914448613738106 -0.1305261922200513 -0.0
  outer loop
    vertex 0.0055 0.0 0.0
    vertex 0.005312592044589876 0.001423504748063864 0.003
    vertex 0.005312592044589876 0.001423504748063864 0.0
  endloop
endfacet
facet normal -0.9238795325112878 -0.38268343236508734 -0.0
  outer loop
    vertex 0.005280906673780782 0.0014999999999999983 0.003
    vertex 0.005312592044589876 0.001423504748063864 0.0
    vertex 0.005312592044589876 0.001423504748063864 0.003
  endloop
endfacet
facet normal -0.9238795325112878 -0.38268343236508734 -0.0
  outer loop
    vertex 0.005312592044589876 0.001423504748063864 0.0
    vertex 0.005280906673780782 0.0014999999999999983 0.003
    vertex 0.005280906673780782 0.0014999999999999983 0.0
  endloop
endfacet
facet normal -0.9238795325112866 -0.3826834323650901 -0.0
  outer loop
    vertex 0.004763139720814413 0.0027499999999999994 0.003
    vertex 0.005280906673780782 0.0014999999999999983 0.0
    vertex 0.005280906673780782 0.0014999999999999983 0.003
  endloop
endfacet
facet normal -0.9238795325112866 -0.3826834323650901 -0.0
  outer loop
    vertex 0.005280906673780782 0.0014999999999999983 0.0
    vertex 0.004763139720814413 0.0027499999999999994 0.003
    vertex 0.004763139720814413 0.0027499999999999994 0.0
  endloop
endfacet
facet normal -0.7933533402912352 -0.6087614290087207 -0.0
  outer loop
    vertex 0.0038890872965260115 0.0038890872965260115 0.003
    vertex 0.004763139720814413 0.0027499999999999994 0.0
    vertex 0.004763139720814413 0.0027499999999999994 0.003
  endloop
endfacet
facet normal -0.7933533402912352 -0.6087614290087207 -0.0
  outer loop
    vertex 0.004763139720814413 0.0027499999999999994 0.0
    vertex 0.0038890872965260115 0.0038890872965260115 0.003
    vertex 0.0038890872965260115 0.0038890872965260115 0.0
  endloop
endfacet
facet normal -0.6087614290087208 -0.7933533402912353 -0.0
  outer loop
    vertex 0.0038890872965260115 0.0038890872965260115 0.003
    vertex 0.0027500000000000007 0.004763139720814412 0.0
    vertex 0.0038890872965260115 0.0038890872965260115 0.0
  endloop
endfacet
facet normal -0.6087614290087208 -0.7933533402912353 -0.0
  outer loop
    vertex 0.0027500000000000007 0.004763139720814412 0.0
    vertex 0.0038890872965260115 0.0038890872965260115 0.003
    vertex 0.0027500000000000007 0.004763139720814412 0.003
  endloop
endfacet
facet normal -0.38268343236509 -0.9238795325112866 -0.0
  outer loop
    vertex 0.0027500000000000007 0.004763139720814412 0.003
    vertex 0.001423504748063865 0.005312592044589875 0.0
    vertex 0.0027500000000000007 0.004763139720814412 0.0
  endloop
endfacet
facet normal -0.38268343236509 -0.9238795325112866 -0.0
  outer loop
    vertex 0.001423504748063865 0.005312592044589875 0.0
    vertex 0.0027500000000000007 0.004763139720814412 0.003
    vertex 0.001423504748063865 0.005312592044589875 0.003
  endloop
endfacet
facet normal -0.13052619222005168 -0.9914448613738104 -0.0
  outer loop
    vertex 0.001423504748063865 0.005312592044589875 0.003
    vertex 3.367778697655221e-19 0.0055 0.0
    vertex 0.001423504748063865 0.005312592044589875 0.0
  endloop
endfacet
facet normal -0.13052619222005168 -0.9914448613738104 -0.0
  outer loop
    vertex 3.367778697655221e-19 0.0055 0.0
    vertex 0.001423504748063865 0.005312592044589875 0.003
    vertex 3.367778697655221e-19 0.0055 0.003
  endloop
endfacet
facet normal 0.1305261922200513 -0.9914448613738105 0.0
  outer loop
    vertex 3.367778697655221e-19 0.0055 0.003
    vertex -0.0014235047480638634 0.005312592044589876 0.0
    vertex 3.367778697655221e-19 0.0055 0.0
  endloop
endfacet
facet normal 0.1305261922200513 -0.9914448613738105 0.0
  outer loop
    vertex -0.0014235047480638634 0.005312592044589876 0.0
    vertex 3.367778697655221e-19 0.0055 0.003
    vertex -0.0014235047480638634 0.005312592044589876 0.003
  endloop
endfacet
facet normal 0.38268343236509 -0.9238795325112866 0.0
  outer loop
    vertex -0.0014235047480638634 0.005312592044589876 0.003
    vertex -0.002749999999999999 0.004763139720814413 0.0
    vertex -0.0014235047480638634 0.005312592044589876 0.0
  endloop
endfacet
facet normal 0.38268343236509 -0.9238795325112866 0.0
  outer loop
    vertex -0.002749999999999999 0.004763139720814413 0.0
    vertex -0.0014235047480638634 0.005312592044589876 0.003
    vertex -0.002749999999999999 0.004763139720814413 0.003
  endloop
endfacet
facet normal 0.6087614290087204 -0.7933533402912354 0.0
  outer loop
    vertex -0.002749999999999999 0.004763139720814413 0.003
    vertex -0.0038890872965260115 0.0038890872965260115 0.0
    vertex -0.002749999999999999 0.004763139720814413 0.0
  endloop
endfacet
facet normal 0.6087614290087204 -0.7933533402912354 0.0
  outer loop
    vertex -0.0038890872965260115 0.0038890872965260115 0.0
    vertex -0.002749999999999999 0.004763139720814413 0.003
    vertex -0.0038890872965260115 0.0038890872965260115 0.003
  endloop
endfacet
facet normal 0.7933533402912352 -0.6087614290087208 0.0
  outer loop
    vertex -0.0038890872965260115 0.0038890872965260115 0.0
    vertex -0.004763139720814411 0.0027500000000000016 0.003
    vertex -0.004763139720814411 0.0027500000000000016 0.0
  endloop
endfacet
facet normal 0.7933533402912352 -0.6087614290087208 0.0
  outer loop
    vertex -0.004763139720814411 0.0027500000000000016 0.003
    vertex -0.0038890872965260115 0.0038890872965260115 0.0
    vertex -0.0038890872965260115 0.0038890872965260115 0.003
  endloop
endfacet
facet normal 0.9238795325112872 -0.38268343236508867 0.0
  outer loop
    vertex -0.004763139720814411 0.0027500000000000016 0.0
    vertex -0.00528090667378078 0.0014999999999999983 0.003
    vertex -0.00528090667378078 0.0014999999999999983 0.0
  endloop
endfacet
facet normal 0.9238795325112872 -0.38268343236508867 0.0
  outer loop
    vertex -0.00528090667378078 0.0014999999999999983 0.003
    vertex -0.004763139720814411 0.0027500000000000016 0.0
    vertex -0.004763139720814411 0.0027500000000000016 0.003
  endloop
endfacet
facet normal -0.0 -1.0 -0.0
  outer loop
    vertex -0.00528090667378078 0.0014999999999999983 0.003
    vertex -0.008302521253618907 0.0014999999999999983 0.0
    vertex -0.00528090667378078 0.0014999999999999983 0.0
  endloop
endfacet
facet normal -0.0 -1.0 -0.0
  outer loop
    vertex -0.008302521253618907 0.0014999999999999983 0.0
    vertex -0.00528090667378078 0.0014999999999999983 0.003
    vertex -0.008302521253618907 0.0014999999999999983 0.003
  endloop
endfacet
facet normal -0.99144486137381 0.13052619222005465 0.0
  outer loop
    vertex -0.008210369523457078 0.002199961883371434 0.003
    vertex -0.008302521253618907 0.0014999999999999983 0.0
    vertex -0.008302521253618907 0.0014999999999999983 0.003
  endloop
endfacet
facet normal -0.99144486137381 0.13052619222005465 0.0
  outer loop
    vertex -0.008302521253618907 0.0014999999999999983 0.0
    vertex -0.008210369523457078 0.002199961883371434 0.003
    vertex -0.008210369523457078 0.002199961883371434 0.0
  endloop
endfacet
facet normal -0.9238795325112864 0.3826834323650906 0.0
  outer loop
    vertex -0.007361215932167726 0.004250000000000005 0.003
    vertex -0.008210369523457078 0.002199961883371434 0.0
    vertex -0.008210369523457078 0.002199961883371434 0.003
  endloop
endfacet
facet normal -0.9238795325112864 0.3826834323650906 0.0
  outer loop
    vertex -0.008210369523457078 0.002199961883371434 0.0
    vertex -0.007361215932167726 0.004250000000000005 0.003
    vertex -0.007361215932167726 0.004250000000000005 0.0
  endloop
endfacet
facet normal -0.7933533402912348 0.6087614290087212 0.0
  outer loop
    vertex -0.00601040764008565 0.006010407640085658 0.003
    vertex -0.007361215932167726 0.004250000000000005 0.0
    vertex -0.007361215932167726 0.004250000000000005 0.003
  endloop
endfacet
facet normal -0.7933533402912348 0.6087614290087212 0.0
  outer loop
    vertex -0.007361215932167726 0.004250000000000005 0.0
    vertex -0.00601040764008565 0.006010407640085658 0.003
    vertex -0.00601040764008565 0.006010407640085658 0.0
  endloop
endfacet
facet normal -0.6087614290087203 0.7933533402912355 0.0
  outer loop
    vertex -0.00601040764008565 0.006010407640085658 0.003
    vertex -0.004249999999999997 0.00736121593216773 0.0
    vertex -0.00601040764008565 0.006010407640085658 0.0
  endloop
endfacet
facet normal -0.6087614290087203 0.7933533402912355 0.0
  outer loop
    vertex -0.004249999999999997 0.00736121593216773 0.0
    vertex -0.00601040764008565 0.006010407640085658 0.003
    vertex -0.004249999999999997 0.00736121593216773 0.003
  endloop
endfacet
facet normal -0.38268343236508934 0.9238795325112871 0.0
  outer loop
    vertex -0.004249999999999997 0.00736121593216773 0.003
    vertex -0.002199961883371422 0.008210369523457082 0.0
    vertex -0.004249999999999997 0.00736121593216773 0.0
  endloop
endfacet
facet normal -0.38268343236508934 0.9238795325112871 0.0
  outer loop
    vertex -0.002199961883371422 0.008210369523457082 0.0
    vertex -0.004249999999999997 0.00736121593216773 0.003
    vertex -0.002199961883371422 0.008210369523457082 0.003
  endloop
endfacet
facet normal -0.13052619222005127 0.9914448613738106 0.0
  outer loop
    vertex -0.002199961883371422 0.008210369523457082 0.003
    vertex 2.0512833885718167e-18 0.0085 0.0
    vertex -0.002199961883371422 0.008210369523457082 0.0
  endloop
endfacet
facet normal -0.13052619222005127 0.9914448613738106 0.0
  outer loop
    vertex 2.0512833885718167e-18 0.0085 0.0
    vertex -0.002199961883371422 0.008210369523457082 0.003
    vertex 2.0512833885718167e-18 0.0085 0.003
  endloop
endfacet
facet normal 0.13052619222005168 0.9914448613738105 0.0
  outer loop
    vertex 2.0512833885718167e-18 0.0085 0.003
    vertex 0.0021999618833714297 0.00821036952345708 0.0
    vertex 2.0512833885718167e-18 0.0085 0.0
  endloop
endfacet
facet normal 0.13052619222005168 0.9914448613738105 0.0
  outer loop
    vertex 0.0021999618833714297 0.00821036952345708 0.0
    vertex 2.0512833885718167e-18 0.0085 0.003
    vertex 0.0021999618833714297 0.00821036952345708 0.003
  endloop
endfacet
facet normal 0.3826834323650901 0.9238795325112867 0.0
  outer loop
    vertex 0.0021999618833714297 0.00821036952345708 0.003
    vertex 0.004250000000000004 0.0073612159321677275 0.0
    vertex 0.0021999618833714297 0.00821036952345708 0.0
  endloop
endfacet
facet normal 0.3826834323650901 0.9238795325112867 0.0
  outer loop
    vertex 0.004250000000000004 0.0073612159321677275 0.0
    vertex 0.0021999618833714297 0.00821036952345708 0.003
    vertex 0.004250000000000004 0.0073612159321677275 0.003
  endloop
endfacet
facet normal 0.6087614290087213 0.7933533402912348 0.0
  outer loop
    vertex 0.004250000000000004 0.0073612159321677275 0.003
    vertex 0.006010407640085655 0.006010407640085653 0.0
    vertex 0.004250000000000004 0.0073612159321677275 0.0
  endloop
endfacet
facet normal 0.6087614290087213 0.7933533402912348 0.0
  outer loop
    vertex 0.006010407640085655 0.006010407640085653 0.0
    vertex 0.004250000000000004 0.0073612159321677275 0.003
    vertex 0.006010407640085655 0.006010407640085653 0.003
  endloop
endfacet
facet normal 0.38268343236508956 -0.9238795325112868 0.0
  outer loop
    vertex 0.004249999999999999 -0.007361215932167729 0.003
    vertex 0.0021999618833714253 -0.00821036952345708 0.0
    vertex 0.004249999999999999 -0.007361215932167729 0.0
  endloop
endfacet
facet normal 0.38268343236508956 -0.9238795325112868 0.0
  outer loop
    vertex 0.0021999618833714253 -0.00821036952345708 0.0
    vertex 0.004249999999999999 -0.007361215932167729 0.003
    vertex 0.0021999618833714253 -0.00821036952345708 0.003
  endloop
endfacet
facet normal 0.6087614290087203 -0.7933533402912356 0.0
  outer loop
    vertex 0.0060104076400856535 -0.006010407640085655 0.003
    vertex 0.004249999999999999 -0.007361215932167729 0.0
    vertex 0.0060104076400856535 -0.006010407640085655 0.0
  endloop
endfacet
facet normal 0.6087614290087203 -0.7933533402912356 0.0
  outer loop
    vertex 0.004249999999999999 -0.007361215932167729 0.0
    vertex 0.0060104076400856535 -0.006010407640085655 0.003
    vertex 0.004249999999999999 -0.007361215932167729 0.003
  endloop
endfacet
facet normal 0.7933533402912357 0.6087614290087202 -0.0
  outer loop
    vertex 0.006010407640085655 0.006010407640085653 0.0
    vertex 0.007361215932167729 0.004249999999999997 0.003
    vertex 0.007361215932167729 0.004249999999999997 0.0
  endloop
endfacet
facet normal 0.7933533402912357 0.6087614290087202 -0.0
  outer loop
    vertex 0.007361215932167729 0.004249999999999997 0.003
    vertex 0.006010407640085655 0.006010407640085653 0.0
    vertex 0.006010407640085655 0.006010407640085653 0.003
  endloop
endfacet
facet normal 1.0 -0.0 -0.0
  outer loop
    vertex 0.0185 0.00036113984247911985 0.0
    vertex 0.0185 -0.004250000000000001 0.003
    vertex 0.0185 -0.004250000000000001 0.0
  endloop
endfacet
facet normal 1.0 -0.0 -0.0
  outer loop
    vertex 0.0185 -0.004250000000000001 0.003
    vertex 0.0185 0.00036113984247911985 0.0
    vertex 0.0185 0.004249999999999997 0.003
  endloop
endfacet
facet normal 1.0 -0.0 -0.0
  outer loop
    vertex 0.0185 0.004249999999999997 0.003
    vertex 0.0185 0.00036113984247911985 0.0
    vertex 0.0185 0.004249999999999997 0.0
  endloop
endfacet
facet normal 6.329161390900123e-17 1.0 -0.0
  outer loop
    vertex 0.007361215932167729 0.004249999999999997 0.003
    vertex 0.0185 0.004249999999999997 0.0
    vertex 0.007361215932167729 0.004249999999999997 0.0
  endloop
endfacet
facet normal 6.329161390900123e-17 1.0 -0.0
  outer loop
    vertex 0.0185 0.004249999999999997 0.0
    vertex 0.007361215932167729 0.004249999999999997 0.003
    vertex 0.0185 0.004249999999999997 0.003
  endloop
endfacet
facet normal 0.0 -1.0 0.0
  outer loop
    vertex 0.0185 -0.004250000000000001 0.003
    vertex 0.007361215932167729 -0.004250000000000001 0.0
    vertex 0.0185 -0.004250000000000001 0.0
  endloop
endfacet
facet normal 0.0 -1.0 0.0
  outer loop
    vertex 0.007361215932167729 -0.004250000000000001 0.0
    vertex 0.0185 -0.004250000000000001 0.003
    vertex 0.007361215932167729 -0.004250000000000001 0.003
  endloop
endfacet
facet normal 5.452467466915475e-32 -1.3054713500199845e-31 1.0
  outer loop
    vertex -0.008210369523457082 -0.0021999618833714214 0.003
    vertex -0.005280906673780781 -0.0015000000000000018 0.003
    vertex -0.008302521253618906 -0.0015000000000000015 0.003
  endloop
endfacet
facet normal 5.452467466915475e-32 -1.3054713500199845e-31 1.0
  outer loop
    vertex -0.005280906673780781 -0.0015000000000000018 0.003
    vertex -0.008210369523457082 -0.0021999618833714214 0.003
    vertex -0.007361215932167732 -0.004249999999999993 0.003
  endloop
endfacet
facet normal 5.452467466915475e-32 -1.3054713500199845e-31 1.0
  outer loop
    vertex -0.005280906673780781 -0.0015000000000000018 0.003
    vertex -0.007361215932167732 -0.004249999999999993 0.003
    vertex -0.006010407640085656 -0.006010407640085652 0.003
  endloop
endfacet
facet normal 5.452467466915475e-32 -1.3054713500199845e-31 1.0
  outer loop
    vertex -0.005280906673780781 -0.0015000000000000018 0.003
    vertex -0.006010407640085656 -0.006010407640085652 0.003
    vertex -0.004250000000000005 -0.007361215932167726 0.003
  endloop
endfacet
facet normal 5.452467466915475e-32 -1.3054713500199845e-31 1.0
  outer loop
    vertex -0.005280906673780781 -0.0015000000000000018 0.003
    vertex -0.004250000000000005 -0.007361215932167726 0.003
    vertex -0.004763139720814414 -0.0027499999999999985 0.003
  endloop
endfacet
facet normal 5.452467466915475e-32 -1.3054713500199845e-31 1.0
  outer loop
    vertex -0.004763139720814414 -0.0027499999999999985 0.003
    vertex -0.004250000000000005 -0.007361215932167726 0.003
    vertex -0.0038890872965260132 -0.0038890872965260093 0.003
  endloop
endfacet
facet normal 5.452467466915475e-32 -1.3054713500199845e-31 1.0
  outer loop
    vertex -0.0038890872965260132 -0.0038890872965260093 0.003
    vertex -0.004250000000000005 -0.007361215932167726 0.003
    vertex -0.0021999618833714344 -0.008210369523457078 0.003
  endloop
endfacet
facet normal 5.452467466915475e-32 -1.3054713500199845e-31 1.0
  outer loop
    vertex -0.0038890872965260132 -0.0038890872965260093 0.003
    vertex -0.0021999618833714344 -0.008210369523457078 0.003
    vertex -0.0027500000000000024 -0.004763139720814411 0.003
  endloop
endfacet
facet normal 5.452467466915475e-32 -1.3054713500199845e-31 1.0
  outer loop
    vertex -0.0027500000000000024 -0.004763139720814411 0.003
    vertex -0.0021999618833714344 -0.008210369523457078 0.003
    vertex -0.0014235047480638684 -0.005312592044589875 0.003
  endloop
endfacet
facet normal 5.452467466915475e-32 -1.3054713500199845e-31 1.0
  outer loop
    vertex -0.0014235047480638684 -0.005312592044589875 0.003
    vertex -0.0021999618833714344 -0.008210369523457078 0.003
    vertex -1.0103336092965665e-18 -0.0085 0.003
  endloop
endfacet
facet normal 5.452467466915475e-32 -1.3054713500199845e-31 1.0
  outer loop
    vertex -0.0014235047480638684 -0.005312592044589875 0.003
    vertex -1.0103336092965665e-18 -0.0085 0.003
    vertex -1.0103336092965663e-18 -0.0055 0.003
  endloop
endfacet
facet normal 5.452467466915475e-32 -1.3054713500199845e-31 1.0
  outer loop
    vertex -1.0103336092965663e-18 -0.0055 0.003
    vertex -1.0103336092965665e-18 -0.0085 0.003
    vertex 0.0021999618833714253 -0.00821036952345708 0.003
  endloop
endfacet
facet normal 5.452467466915475e-32 -1.3054713500199845e-31 1.0
  outer loop
    vertex -1.0103336092965663e-18 -0.0055 0.003
    vertex 0.0021999618833714253 -0.00821036952345708 0.003
    vertex 0.0014235047480638616 -0.005312592044589876 0.003
  endloop
endfacet
facet normal 5.452467466915475e-32 -1.3054713500199845e-31 1.0
  outer loop
    vertex 0.0014235047480638616 -0.005312592044589876 0.003
    vertex 0.0021999618833714253 -0.00821036952345708 0.003
    vertex 0.002749999999999996 -0.004763139720814415 0.003
  endloop
endfacet
facet normal 5.452467466915475e-32 -1.3054713500199845e-31 1.0
  outer loop
    vertex 0.002749999999999996 -0.004763139720814415 0.003
    vertex 0.0021999618833714253 -0.00821036952345708 0.003
    vertex 0.004249999999999999 -0.007361215932167729 0.003
  endloop
endfacet
facet normal 5.452467466915475e-32 -1.3054713500199845e-31 1.0
  outer loop
    vertex 0.002749999999999996 -0.004763139720814415 0.003
    vertex 0.004249999999999999 -0.007361215932167729 0.003
    vertex 0.0038890872965260106 -0.003889087296526012 0.003
  endloop
endfacet
facet normal 5.452467466915475e-32 -1.3054713500199845e-31 1.0
  outer loop
    vertex 0.0038890872965260106 -0.003889087296526012 0.003
    vertex 0.004249999999999999 -0.007361215932167729 0.003
    vertex 0.004763139720814411 -0.0027500000000000024 0.003
  endloop
endfacet
facet normal 5.452467466915475e-32 -1.3054713500199845e-31 1.0
  outer loop
    vertex 0.004763139720814411 -0.0027500000000000024 0.003
    vertex 0.004249999999999999 -0.007361215932167729 0.003
    vertex 0.0060104076400856535 -0.006010407640085655 0.003
  endloop
endfacet
facet normal 5.452467466915475e-32 -1.3054713500199845e-31 1.0
  outer loop
    vertex 0.004763139720814411 -0.0027500000000000024 0.003
    vertex 0.0060104076400856535 -0.006010407640085655 0.003
    vertex 0.005280906673780781 -0.0015000000000000018 0.003
  endloop
endfacet
facet normal 5.452467466915475e-32 -1.3054713500199845e-31 1.0
  outer loop
    vertex 0.005280906673780781 -0.0015000000000000018 0.003
    vertex 0.0060104076400856535 -0.006010407640085655 0.003
    vertex 0.005312592044589875 -0.0014235047480638686 0.003
  endloop
endfacet
facet normal 5.452467466915475e-32 -1.3054713500199845e-31 1.0
  outer loop
    vertex 0.005312592044589875 -0.0014235047480638686 0.003
    vertex 0.0060104076400856535 -0.006010407640085655 0.003
    vertex 0.0055 0.0 0.003
  endloop
endfacet
facet normal 5.452467466915475e-32 -1.3054713500199845e-31 1.0
  outer loop
    vertex -0.00528090667378078 0.0014999999999999983 0.003
    vertex -0.008210369523457078 0.002199961883371434 0.003
    vertex -0.008302521253618907 0.0014999999999999983 0.003
  endloop
endfacet
facet normal 5.452467466915475e-32 -1.3054713500199845e-31 1.0
  outer loop
    vertex -0.008210369523457078 0.002199961883371434 0.003
    vertex -0.00528090667378078 0.0014999999999999983 0.003
    vertex -0.007361215932167726 0.004250000000000005 0.003
  endloop
endfacet
facet normal 5.452467466915475e-32 -1.3054713500199845e-31 1.0
  outer loop
    vertex -0.007361215932167726 0.004250000000000005 0.003
    vertex -0.00528090667378078 0.0014999999999999983 0.003
    vertex -0.00601040764008565 0.006010407640085658 0.003
  endloop
endfacet
facet normal 5.452467466915475e-32 -1.3054713500199845e-31 1.0
  outer loop
    vertex -0.00601040764008565 0.006010407640085658 0.003
    vertex -0.00528090667378078 0.0014999999999999983 0.003
    vertex -0.004249999999999997 0.00736121593216773 0.003
  endloop
endfacet
facet normal 5.452467466915475e-32 -1.3054713500199845e-31 1.0
  outer loop
    vertex -0.004249999999999997 0.00736121593216773 0.003
    vertex -0.00528090667378078 0.0014999999999999983 0.003
    vertex -0.004763139720814411 0.0027500000000000016 0.003
  endloop
endfacet
facet normal 5.452467466915475e-32 -1.3054713500199845e-31 1.0
  outer loop
    vertex -0.004249999999999997 0.00736121593216773 0.003
    vertex -0.004763139720814411 0.0027500000000000016 0.003
    vertex -0.0038890872965260115 0.0038890872965260115 0.003
  endloop
endfacet
facet normal 5.452467466915475e-32 -1.3054713500199845e-31 1.0
  outer loop
    vertex -0.004249999999999997 0.00736121593216773 0.003
    vertex -0.0038890872965260115 0.0038890872965260115 0.003
    vertex -0.002199961883371422 0.008210369523457082 0.003
  endloop
endfacet
facet normal 5.452467466915475e-32 -1.3054713500199845e-31 1.0
  outer loop
    vertex -0.002199961883371422 0.008210369523457082 0.003
    vertex -0.0038890872965260115 0.0038890872965260115 0.003
    vertex -0.002749999999999999 0.004763139720814413 0.003
  endloop
endfacet
facet normal 5.452467466915475e-32 -1.3054713500199845e-31 1.0
  outer loop
    vertex -0.002199961883371422 0.008210369523457082 0.003
    vertex -0.002749999999999999 0.004763139720814413 0.003
    vertex -0.0014235047480638634 0.005312592044589876 0.003
  endloop
endfacet
facet normal 5.452467466915475e-32 -1.3054713500199845e-31 1.0
  outer loop
    vertex -0.002199961883371422 0.008210369523457082 0.003
    vertex -0.0014235047480638634 0.005312592044589876 0.003
    vertex 2.0512833885718167e-18 0.0085 0.003
  endloop
endfacet
facet normal 5.452467466915475e-32 -1.3054713500199845e-31 1.0
  outer loop
    vertex 2.0512833885718167e-18 0.0085 0.003
    vertex -0.0014235047480638634 0.005312592044589876 0.003
    vertex 3.367778697655221e-19 0.0055 0.003
  endloop
endfacet
facet normal 5.452467466915475e-32 -1.3054713500199845e-31 1.0
  outer loop
    vertex 2.0512833885718167e-18 0.0085 0.003
    vertex 3.367778697655221e-19 0.0055 0.003
    vertex 0.001423504748063865 0.005312592044589875 0.003
  endloop
endfacet
facet normal 5.452467466915475e-32 -1.3054713500199845e-31 1.0
  outer loop
    vertex 2.0512833885718167e-18 0.0085 0.003
    vertex 0.001423504748063865 0.005312592044589875 0.003
    vertex 0.0021999618833714297 0.00821036952345708 0.003
  endloop
endfacet
facet normal 5.452467466915475e-32 -1.3054713500199845e-31 1.0
  outer loop
    vertex 0.0021999618833714297 0.00821036952345708 0.003
    vertex 0.001423504748063865 0.005312592044589875 0.003
    vertex 0.0027500000000000007 0.004763139720814412 0.003
  endloop
endfacet
facet normal 5.452467466915475e-32 -1.3054713500199845e-31 1.0
  outer loop
    vertex 0.0021999618833714297 0.00821036952345708 0.003
    vertex 0.0027500000000000007 0.004763139720814412 0.003
    vertex 0.004250000000000004 0.0073612159321677275 0.003
  endloop
endfacet
facet normal 5.452467466915475e-32 -1.3054713500199845e-31 1.0
  outer loop
    vertex 0.004250000000000004 0.0073612159321677275 0.003
    vertex 0.0027500000000000007 0.004763139720814412 0.003
    vertex 0.0038890872965260115 0.0038890872965260115 0.003
  endloop
endfacet
facet normal 5.452467466915475e-32 -1.3054713500199845e-31 1.0
  outer loop
    vertex 0.004250000000000004 0.0073612159321677275 0.003
    vertex 0.0038890872965260115 0.0038890872965260115 0.003
    vertex 0.004763139720814413 0.0027499999999999994 0.003
  endloop
endfacet
facet normal 5.452467466915475e-32 -1.3054713500199845e-31 1.0
  outer loop
    vertex 0.004250000000000004 0.0073612159321677275 0.003
    vertex 0.004763139720814413 0.0027499999999999994 0.003
    vertex 0.006010407640085655 0.006010407640085653 0.003
  endloop
endfacet
facet normal 5.452467466915475e-32 -1.3054713500199845e-31 1.0
  outer loop
    vertex 0.006010407640085655 0.006010407640085653 0.003
    vertex 0.004763139720814413 0.0027499999999999994 0.003
    vertex 0.005280906673780782 0.0014999999999999983 0.003
  endloop
endfacet
facet normal 5.452467466915475e-32 -1.3054713500199845e-31 1.0
  outer loop
    vertex 0.006010407640085655 0.006010407640085653 0.003
    vertex 0.005280906673780782 0.0014999999999999983 0.003
    vertex 0.005312592044589876 0.001423504748063864 0.003
  endloop
endfacet
facet normal 5.452467466915475e-32 -1.3054713500199845e-31 1.0
  outer loop
    vertex 0.006010407640085655 0.006010407640085653 0.003
    vertex 0.005312592044589876 0.001423504748063864 0.003
    vertex 0.0055 0.0 0.003
  endloop
endfacet
facet normal 5.452467466915475e-32 -1.3054713500199845e-31 1.0
  outer loop
    vertex 0.006010407640085655 0.006010407640085653 0.003
    vertex 0.0055 0.0 0.003
    vertex 0.0060104076400856535 -0.006010407640085655 0.003
  endloop
endfacet
facet normal 5.452467466915475e-32 -1.3054713500199845e-31 1.0
  outer loop
    vertex 0.006010407640085655 0.006010407640085653 0.003
    vertex 0.0060104076400856535 -0.006010407640085655 0.003
    vertex 0.007361215932167729 -0.004250000000000001 0.003
  endloop
endfacet
facet normal 5.452467466915475e-32 -1.3054713500199845e-31 1.0
  outer loop
    vertex 0.006010407640085655 0.006010407640085653 0.003
    vertex 0.007361215932167729 -0.004250000000000001 0.003
    vertex 0.007361215932167729 0.004249999999999997 0.003
  endloop
endfacet
facet normal 5.452467466915475e-32 -1.3054713500199845e-31 1.0
  outer loop
    vertex 0.007361215932167729 0.004249999999999997 0.003
    vertex 0.007361215932167729 -0.004250000000000001 0.003
    vertex 0.0185 -0.004250000000000001 0.003
  endloop
endfacet
facet normal 5.452467466915475e-32 -1.3054713500199845e-31 1.0
  outer loop
    vertex 0.007361215932167729 0.004249999999999997 0.003
    vertex 0.0185 -0.004250000000000001 0.003
    vertex 0.0185 0.004249999999999997 0.003
  endloop
endfacet
endsolid 도색집게용
